<?xml version="1.0" standalone="no"?>
<!DOCTYPE svg PUBLIC "-//W3C//DTD SVG 20010904//EN"
 "http://www.w3.org/TR/2001/REC-SVG-20010904/DTD/svg10.dtd">
<svg version="1.0" xmlns="http://www.w3.org/2000/svg"
 width="600.000000pt" height="600.000000pt" viewBox="0 0 600.000000 600.000000"
 preserveAspectRatio="xMidYMid meet">
<g transform="translate(0.000000,600.000000) scale(0.100000,-0.100000)"
fill="#000000" stroke="none">
<path d="M2773 4782 c-13 -10 -91 -159 -182 -347 -87 -181 -184 -381 -214
-444 -31 -63 -55 -116 -53 -118 2 -2 41 20 87 50 184 118 804 446 957 507 17
7 32 13 32 15 0 1 -34 72 -75 157 -46 97 -84 164 -101 177 -25 20 -38 21 -228
21 -175 0 -204 -3 -223 -18z m448 -23 c5 -8 12 -25 15 -39 6 -27 8 -32 38 -73
10 -15 19 -38 20 -51 0 -13 6 -24 11 -23 6 1 11 -11 13 -28 2 -17 14 -39 28
-51 l26 -21 -31 -23 c-18 -12 -39 -19 -47 -16 -8 3 -12 2 -9 -4 7 -11 -49 -42
-59 -33 -3 3 -15 -2 -25 -11 -11 -10 -25 -15 -32 -10 -8 5 -10 3 -4 -6 6 -10
4 -12 -9 -7 -9 4 -15 3 -11 -2 4 -8 -75 -54 -90 -52 -2 0 -22 -9 -42 -21 -55
-31 -170 -88 -179 -88 -4 0 -18 -9 -30 -21 -12 -11 -28 -21 -35 -22 -8 -2 -25
-10 -39 -20 -13 -9 -30 -17 -38 -17 -7 0 -10 -4 -7 -10 3 -6 -1 -7 -10 -4 -9
4 -21 -1 -29 -11 -7 -10 -22 -19 -33 -20 -12 0 -35 -15 -53 -33 -17 -18 -38
-32 -45 -32 -7 0 -21 -7 -29 -16 -9 -8 -16 -12 -16 -9 0 4 -15 -4 -32 -17 -49
-37 -54 -38 -54 -18 0 10 3 17 6 15 4 -2 12 12 19 32 10 27 15 32 22 22 6 -9
7 -4 3 15 -5 20 -4 27 4 22 8 -5 10 -2 6 8 -3 9 -1 16 5 16 6 0 10 3 9 8 -5
13 24 72 35 72 6 0 7 3 4 7 -4 3 0 14 8 23 9 10 15 21 14 26 -4 17 27 74 36
67 4 -5 5 -3 2 4 -6 10 19 71 34 83 4 3 12 24 19 48 7 23 17 42 22 42 5 0 6 4
3 10 -3 5 3 15 15 22 11 7 20 16 20 21 0 4 -4 5 -10 2 -6 -3 -7 1 -4 9 3 9 10
13 15 10 5 -3 9 7 9 21 0 17 4 24 12 19 6 -4 8 -3 5 4 -8 12 21 73 41 85 6 4
12 13 12 18 0 6 -5 7 -10 4 -6 -4 -3 9 6 29 10 19 21 33 26 30 4 -3 11 2 14
10 3 9 10 14 14 11 5 -3 11 -1 15 4 3 6 85 9 201 7 154 -2 198 -6 205 -17z
m129 -252 c0 -5 -4 -5 -10 -2 -5 3 -10 14 -10 23 0 15 2 15 10 2 5 -8 10 -19
10 -23z"/>
<path d="M3203 4753 c4 -3 1 -13 -6 -22 -11 -14 -10 -14 5 -2 16 12 16 31 1
31 -4 0 -3 -3 0 -7z"/>
<path d="M2773 4733 c-7 -2 -13 -9 -13 -15 0 -7 5 -7 13 1 8 6 17 8 20 4 4 -3
7 -1 7 5 0 13 -7 14 -27 5z"/>
<path d="M2413 3983 c4 -3 1 -13 -6 -22 -11 -14 -10 -14 5 -2 16 12 16 31 1
31 -4 0 -3 -3 0 -7z"/>
<path d="M3702 4591 l-33 -101 -111 0 -111 0 89 -62 c49 -34 90 -62 91 -63 2
-1 -13 -46 -32 -100 -19 -54 -35 -101 -35 -103 0 -3 10 4 23 15 12 11 51 40
87 65 l65 45 89 -64 c52 -38 86 -57 81 -46 -16 39 -65 187 -62 188 1 1 42 30
91 64 l89 61 -111 0 -110 0 -34 101 -33 100 -33 -100z m63 -91 c-7 -11 40 -40
65 -40 12 0 19 -4 15 -9 -3 -5 0 -13 6 -17 8 -4 9 -3 5 4 -3 6 1 15 11 19 16
8 26 8 57 4 5 0 3 -8 -4 -16 -7 -9 -19 -14 -26 -11 -7 3 -18 -2 -24 -9 -7 -8
-17 -12 -24 -8 -6 3 -8 3 -4 -2 4 -4 1 -17 -7 -29 -17 -23 -20 -62 -6 -71 15
-9 9 -46 -6 -41 -7 3 -13 3 -13 0 0 -2 10 -8 22 -13 12 -4 17 -10 12 -14 -6
-3 -27 10 -47 29 -20 20 -37 32 -37 29 0 -3 -6 -3 -12 1 -19 12 -48 12 -55 1
-3 -6 -1 -7 5 -3 7 4 12 2 12 -3 0 -6 -11 -11 -24 -11 -14 0 -28 -5 -32 -11
-4 -8 1 -9 17 -5 23 6 23 6 -1 -6 -14 -7 -31 -18 -38 -25 -18 -18 -27 -16 -13
1 7 8 11 20 10 28 -3 20 12 68 22 68 5 0 9 5 9 11 0 5 -4 7 -10 4 -5 -3 -7 0
-4 8 3 10 -9 26 -33 43 -21 16 -40 32 -41 37 -2 4 -9 4 -14 1 -6 -4 -8 -2 -4
4 3 5 1 12 -6 14 -6 2 18 2 55 0 55 -4 68 -1 73 12 3 9 10 14 14 11 4 -3 11 7
14 23 4 15 12 39 19 55 l12 27 17 -41 c10 -22 16 -44 13 -49z"/>
<path d="M3890 4446 c7 -7 13 -7 20 0 6 6 3 10 -10 10 -13 0 -16 -4 -10 -10z"/>
<path d="M3656 4388 c3 -5 10 -6 15 -3 13 9 11 12 -6 12 -8 0 -12 -4 -9 -9z"/>
<path d="M3639 4293 c-13 -16 -12 -17 4 -4 16 13 21 21 13 21 -2 0 -10 -8 -17
-17z"/>
<path d="M3385 4379 c-22 -10 -85 -40 -140 -65 -311 -144 -860 -441 -942 -511
-12 -10 -67 -111 -121 -226 -55 -114 -105 -214 -112 -222 -21 -26 5 -17 75 26
473 287 1053 553 1411 648 l42 11 -72 148 c-39 81 -78 161 -86 178 l-15 32
-40 -19z m40 -26 c5 -10 9 -24 11 -31 1 -7 9 -23 18 -36 8 -13 12 -27 8 -32
-4 -5 -5 -8 -3 -7 11 7 31 -22 31 -44 0 -13 4 -22 9 -18 5 3 15 -12 21 -32 7
-21 19 -48 26 -61 11 -16 12 -27 5 -40 -8 -13 -10 -14 -11 -2 0 9 -3 11 -8 4
-13 -19 -185 -73 -239 -75 l-28 -1 25 -8 25 -8 -26 -1 c-14 -1 -34 -8 -45 -16
-22 -17 -38 -20 -29 -5 9 15 -4 12 -21 -5 -9 -8 -24 -15 -35 -15 -13 0 -18 -4
-13 -12 5 -8 2 -9 -10 -5 -11 4 -28 -1 -43 -13 -14 -11 -33 -20 -42 -20 -9 0
-35 -9 -56 -20 -22 -12 -48 -19 -58 -16 -10 2 -14 0 -11 -6 4 -6 -2 -8 -17 -3
-24 7 -24 7 -4 -9 14 -11 15 -16 5 -14 -8 1 -35 -7 -60 -19 -62 -29 -83 -37
-99 -34 -7 1 -10 -2 -7 -7 3 -6 -1 -13 -10 -16 -10 -4 -13 -2 -8 7 4 6 -3 2
-15 -10 -12 -13 -28 -23 -36 -23 -8 0 -15 -4 -15 -10 0 -5 -3 -9 -7 -8 -5 1
-21 -4 -36 -10 -16 -7 -33 -10 -38 -6 -5 3 -8 0 -7 -6 3 -14 -88 -68 -115 -69
-10 -1 -15 -5 -12 -11 3 -5 -3 -10 -15 -10 -12 0 -18 -4 -15 -10 4 -6 3 -9 -2
-8 -12 3 -93 -34 -93 -44 0 -4 -7 -4 -17 -1 -11 4 -14 3 -9 -5 4 -7 1 -12 -9
-12 -9 0 -13 -5 -9 -11 4 -7 1 -10 -7 -7 -8 3 -26 -3 -40 -13 -14 -10 -32 -19
-39 -21 -8 -2 -20 -8 -28 -15 -7 -7 -20 -9 -29 -6 -11 4 -13 8 -5 11 7 2 24
28 38 58 14 30 30 52 35 49 5 -4 9 -2 9 4 0 5 -5 11 -11 13 -6 2 1 20 15 41
14 21 26 42 26 47 0 20 37 79 45 72 5 -4 5 1 2 11 -9 25 2 44 15 26 6 -10 8
-7 6 11 -2 21 4 29 38 45 22 11 53 30 69 43 15 12 34 22 42 22 8 0 11 5 7 12
-4 6 -3 8 3 5 6 -4 21 2 34 12 13 10 30 16 38 13 8 -3 11 0 7 7 -4 6 0 11 9
11 9 0 13 5 9 11 -5 8 -1 8 14 0 30 -16 39 -14 16 4 -18 15 -18 15 0 8 13 -4
17 -3 12 5 -5 8 -2 10 8 6 9 -3 13 -11 9 -17 -3 -6 -1 -7 6 -3 9 6 9 12 -1 24
-7 10 -8 14 -4 10 5 -4 21 1 36 12 16 11 31 20 35 20 3 0 13 7 21 15 9 8 20
15 27 15 6 0 2 -7 -9 -16 -18 -14 -18 -15 4 -4 12 6 28 8 35 4 8 -5 7 -2 -2 9
-12 15 -11 17 2 17 9 0 19 5 23 12 5 7 3 8 -6 3 -8 -5 -11 -4 -6 3 4 6 13 9
20 6 7 -3 22 3 31 13 10 10 20 17 22 16 9 -8 33 -2 28 7 -3 5 6 12 20 16 14 3
25 9 25 13 0 12 69 33 82 25 7 -4 10 -3 5 1 -9 10 41 45 66 45 10 0 15 5 12
10 -3 6 2 10 12 10 10 0 32 9 48 20 17 11 39 18 50 15 11 -3 14 -2 6 1 -9 5
-3 11 19 20 17 8 37 11 43 7 6 -3 7 -1 3 5 -6 10 49 32 82 32 7 0 10 5 7 10
-3 6 3 10 14 10 12 0 21 5 21 10 0 16 17 11 25 -7z"/>
<path d="M2908 4093 c7 -3 16 -2 19 1 4 3 -2 6 -13 5 -11 0 -14 -3 -6 -6z"/>
<path d="M3220 3970 c8 -5 22 -9 30 -9 10 0 8 3 -5 9 -27 12 -43 12 -25 0z"/>
<path d="M2316 3782 c-3 -4 4 -9 15 -9 23 -2 25 3 4 10 -8 4 -16 3 -19 -1z"/>
<path d="M2405 3590 c-3 -6 1 -7 9 -4 18 7 21 14 7 14 -6 0 -13 -4 -16 -10z"/>
<path d="M2426 4193 c-6 -14 -5 -15 5 -6 7 7 10 15 7 18 -3 3 -9 -2 -12 -12z"/>
<path d="M3575 3975 c-22 -7 -110 -36 -195 -63 -346 -112 -729 -291 -1203
-565 l-138 -80 -50 -98 c-27 -54 -49 -101 -49 -103 0 -7 123 5 160 16 19 6
227 120 462 254 235 134 432 244 438 244 6 0 203 -110 438 -244 235 -134 443
-248 462 -254 19 -6 65 -13 102 -16 l68 -5 -19 37 c-10 20 -35 71 -54 112 -19
41 -88 183 -152 315 -65 132 -141 291 -171 353 -29 61 -54 112 -56 111 -2 0
-21 -7 -43 -14z m42 -47 c-3 -10 -1 -16 4 -12 8 5 13 -12 12 -44 -1 -10 2 -10
15 0 14 12 14 10 2 -12 -13 -24 -12 -24 5 -10 10 8 16 10 12 4 -3 -6 18 -59
48 -118 30 -59 52 -112 49 -118 -4 -6 -2 -8 4 -4 6 4 13 -7 17 -26 4 -18 13
-40 20 -48 16 -20 66 -120 70 -143 2 -9 13 -30 23 -45 28 -39 53 -102 45 -115
-3 -5 -1 -7 4 -4 6 4 13 0 16 -7 4 -10 0 -13 -14 -11 -11 2 -17 0 -14 -6 4 -5
10 -7 14 -5 13 8 28 -8 50 -53 21 -45 29 -78 11 -51 -6 9 -10 10 -10 3 0 -14
-67 -6 -88 10 -7 5 -15 7 -19 4 -3 -3 -18 0 -33 8 -15 8 -31 11 -35 7 -5 -4
-5 -2 -2 4 4 7 -22 27 -68 50 -41 21 -75 41 -75 45 0 4 -14 9 -31 13 -17 3
-28 10 -24 15 3 5 1 12 -5 16 -5 3 -10 1 -10 -6 0 -6 -10 -1 -22 12 -13 13
-29 24 -35 25 -30 2 -36 4 -30 11 8 8 -42 35 -53 28 -5 -3 -10 -2 -12 2 -6 15
-69 54 -77 49 -5 -3 -11 1 -14 9 -4 10 -1 12 11 9 14 -5 15 -4 2 4 -9 7 -18 8
-26 1 -8 -7 -15 -6 -20 2 -5 8 -3 9 6 4 8 -5 11 -4 6 3 -4 6 -12 9 -19 6 -7
-2 -21 4 -31 15 -10 11 -23 18 -29 14 -6 -4 -7 -1 -2 7 6 10 4 12 -8 7 -9 -3
-21 1 -29 10 -11 14 -11 16 3 11 9 -4 16 -1 16 8 0 7 -5 10 -10 7 -15 -9 -58
-12 -53 -4 3 4 -15 16 -39 26 -25 10 -42 21 -40 26 3 4 -18 15 -46 24 -51 17
-119 14 -119 -6 0 -6 -4 -7 -10 -4 -5 3 -18 1 -27 -5 -17 -11 -17 -11 0 -6 11
3 15 2 12 -4 -3 -6 -11 -10 -16 -10 -6 0 -31 -10 -57 -22 -26 -12 -53 -21 -61
-19 -8 1 -10 -2 -5 -10 5 -9 2 -10 -10 -6 -9 4 -15 3 -13 -1 3 -4 -5 -16 -16
-27 -11 -11 -16 -13 -12 -5 5 9 -2 6 -16 -6 -23 -20 -89 -54 -104 -54 -4 0 -1
7 6 17 13 15 12 15 -8 3 -20 -13 -20 -15 -5 -27 15 -13 14 -13 -7 -7 -16 4
-21 3 -17 -5 4 -6 3 -11 -3 -11 -6 0 -20 -10 -32 -22 -12 -13 -19 -17 -15 -10
12 21 -7 13 -44 -19 -19 -16 -36 -25 -38 -19 -2 6 -11 2 -19 -9 -8 -12 -23
-21 -34 -21 -12 0 -17 -4 -13 -11 4 -7 1 -10 -7 -7 -8 3 -43 -15 -79 -40 -36
-25 -58 -37 -50 -27 14 17 14 17 -7 5 -12 -8 -19 -18 -16 -23 3 -5 -4 -6 -17
-2 -14 5 -20 3 -16 -3 6 -9 -68 -52 -104 -60 -16 -3 -100 -9 -100 -7 0 6 36
75 50 95 10 14 18 29 17 35 0 5 22 26 48 45 27 19 46 29 41 22 -7 -11 -4 -11
13 0 12 7 21 16 21 20 0 5 7 8 16 8 9 0 12 5 8 12 -5 7 -2 9 8 6 8 -4 26 4 40
17 20 18 28 21 37 12 9 -9 11 -8 5 6 -5 13 -2 16 9 11 9 -3 24 0 34 6 17 11
17 11 -2 5 -31 -10 -7 10 47 38 34 18 49 22 58 13 8 -8 9 -6 4 9 -7 18 -6 19
10 6 9 -8 16 -10 14 -4 -3 11 65 63 83 63 5 0 21 7 34 16 14 9 31 14 39 11 9
-4 13 -1 11 6 -6 19 100 65 122 53 16 -9 17 -8 3 9 -14 17 -14 18 8 6 24 -13
42 -8 42 12 0 7 -4 6 -10 -3 -7 -12 -12 -12 -22 -2 -8 8 -8 12 -1 12 6 0 32 9
57 20 26 11 47 18 49 17 1 -1 19 9 39 21 21 13 43 20 49 16 8 -4 9 -3 5 4 -5
8 1 12 14 12 13 0 19 4 14 12 -4 6 -3 8 4 4 6 -3 37 5 69 20 126 57 196 84
204 78 5 -3 9 0 9 6 0 6 6 10 13 9 6 -1 20 1 30 6 10 4 24 2 35 -6 15 -13 16
-12 4 3 -11 14 -9 17 20 23 18 4 38 11 43 15 9 7 50 18 94 26 7 1 19 8 24 13
6 6 26 10 45 9 27 -2 32 -6 29 -20z"/>
<path d="M2580 3430 c-9 -6 -10 -10 -3 -10 6 0 15 5 18 10 8 12 4 12 -15 0z"/>
<path d="M3425 3401 c-3 -5 -2 -12 3 -15 5 -3 9 1 9 9 0 17 -3 19 -12 6z"/>
<path d="M3850 3381 c0 -6 4 -13 10 -16 6 -3 7 1 4 9 -7 18 -14 21 -14 7z"/>
<path d="M3530 3346 c0 -2 7 -7 16 -10 8 -3 12 -2 9 4 -6 10 -25 14 -25 6z"/>
<path d="M2142 2940 c-45 -9 -84 -19 -86 -21 -2 -2 -15 -38 -29 -79 -29 -85
-192 -546 -202 -572 -6 -16 -1 -18 43 -18 55 0 48 -10 99 137 l17 52 106 3
105 3 30 -95 31 -95 90 -3 90 -3 -48 143 c-26 79 -70 239 -99 356 -28 116 -54
211 -58 211 -3 -1 -43 -9 -89 -19z m85 -32 c0 -7 5 -37 12 -66 6 -30 8 -58 5
-64 -5 -7 -2 -8 6 -3 10 6 12 4 7 -8 -4 -10 -3 -27 2 -40 16 -43 34 -102 37
-122 1 -11 12 -48 24 -83 11 -35 22 -76 23 -92 1 -15 5 -26 10 -23 9 5 9 0 1
-21 -3 -9 -11 -13 -17 -9 -6 3 -7 1 -3 -6 6 -9 11 -9 24 1 14 12 14 10 3 -10
-13 -24 -8 -42 12 -42 7 0 6 4 -3 10 -8 5 -11 12 -7 16 10 11 18 0 23 -34 5
-29 4 -30 -41 -34 -25 -2 -45 0 -45 3 0 4 -8 9 -19 12 -10 2 -21 17 -24 33
-26 137 -35 145 -164 147 -56 1 -99 -2 -96 -7 3 -4 -5 -5 -17 -1 -15 5 -20 4
-16 -4 11 -18 -5 -13 -21 7 -12 14 -12 12 0 -13 13 -26 13 -31 -2 -43 -11 -9
-12 -11 -1 -6 12 6 13 5 4 -7 -6 -8 -14 -31 -18 -51 -4 -21 -11 -38 -16 -38
-6 0 -9 -3 -8 -7 3 -9 -5 -13 -26 -13 -11 0 -7 19 16 78 16 42 30 84 30 92 0
8 7 22 15 31 7 9 11 24 7 33 -4 10 -1 16 7 16 7 0 9 3 6 7 -4 3 0 17 8 29 8
13 17 38 19 57 2 19 14 53 25 75 12 23 21 48 21 57 0 8 4 23 9 33 5 9 15 36
21 59 9 28 17 40 26 36 8 -3 14 0 14 7 0 7 6 10 13 7 6 -2 21 -1 32 4 32 12
82 10 82 -3z"/>
<path d="M2099 2858 c-6 -13 -8 -20 -4 -16 5 4 15 2 24 -5 14 -10 14 -10 3 5
-8 9 -11 22 -7 28 3 5 4 10 1 10 -3 0 -11 -10 -17 -22z"/>
<path d="M2093 2823 c-7 -3 -13 -10 -13 -17 0 -6 -11 -28 -25 -48 -16 -23 -21
-39 -14 -43 7 -5 6 -11 -1 -20 -7 -8 -8 -20 -4 -26 5 -8 2 -10 -8 -7 -11 5
-14 1 -10 -17 2 -12 -1 -26 -7 -29 -5 -4 -7 -14 -4 -23 4 -10 2 -14 -4 -10 -6
4 -14 0 -17 -9 -3 -8 -2 -12 4 -9 6 3 7 -1 4 -9 -3 -9 -10 -13 -15 -10 -15 9
-10 -13 6 -26 8 -7 13 -15 11 -19 -3 -4 3 -7 12 -8 9 -1 29 -4 45 -7 15 -2 25
0 21 5 -6 11 4 11 68 0 26 -4 45 -4 43 0 -3 4 2 20 10 35 8 16 11 31 6 34 -8
5 -45 153 -45 182 0 9 -4 14 -8 12 -4 -3 -8 7 -8 21 0 17 4 24 12 19 7 -4 8
-3 4 5 -4 6 -12 9 -17 5 -6 -3 -16 1 -22 9 -7 8 -18 13 -24 10z m80 -275 l7
-28 -86 0 c-65 0 -84 3 -81 13 18 42 87 259 88 274 1 15 27 -78 72 -259z"/>
<path d="M3840 2733 c-64 -9 -119 -26 -158 -49 l-43 -25 21 -30 c21 -29 22
-29 45 -11 32 26 108 46 140 38 28 -7 45 -40 45 -87 0 -25 -4 -29 -30 -29 -44
0 -131 -20 -170 -40 -57 -29 -73 -54 -78 -118 -4 -51 -1 -62 22 -89 52 -62
140 -67 216 -12 46 33 50 34 50 15 0 -43 108 -61 175 -29 42 20 51 57 11 47
-15 -3 -27 -1 -32 8 -5 7 -11 83 -14 168 -5 170 -13 196 -68 223 -31 16 -95
26 -132 20z m72 -38 c-3 -5 2 -4 11 4 13 10 17 10 17 1 0 -7 7 -10 17 -6 10 4
14 4 11 0 -4 -3 4 -17 18 -31 25 -25 26 -26 28 -72 0 -16 -3 -27 -8 -23 -5 3
-6 0 -1 -7 10 -17 13 -211 3 -205 -4 3 -5 -2 -2 -10 3 -9 10 -16 15 -16 17 0
28 -44 14 -53 -14 -8 -68 -3 -98 8 -14 6 -15 10 -6 22 10 11 9 13 -2 11 -8 -2
-13 2 -12 9 2 8 -4 10 -15 6 -15 -6 -16 -5 -2 11 19 23 22 143 4 150 -14 5 -7
46 7 46 5 0 7 15 5 33 -3 17 -5 42 -5 55 -1 13 -5 21 -10 18 -5 -3 -14 1 -21
9 -11 13 -10 14 3 10 18 -8 32 11 16 21 -8 4 -9 3 -5 -4 9 -15 1 -15 -26 -1
-11 6 -18 7 -15 1 4 -5 -13 -5 -41 2 l-47 11 35 5 c59 9 119 6 112 -5z m-158
-19 c-3 -8 -13 -12 -27 -8 -20 5 -20 6 -1 13 29 11 34 10 28 -5z m-34 -22 c0
-2 -9 -4 -21 -4 -11 0 -18 4 -14 10 5 8 35 3 35 -6z m87 -150 c-3 -3 -12 -4
-19 -1 -8 3 -5 6 6 6 11 1 17 -2 13 -5z m-32 -13 c3 -6 0 -13 -8 -18 -16 -11
-37 -58 -37 -86 0 -12 7 -31 15 -41 8 -10 12 -22 10 -27 -3 -4 3 -6 12 -5 21
3 54 -15 47 -26 -3 -4 -12 -4 -21 -1 -10 4 -14 2 -10 -4 4 -6 0 -13 -8 -17 -8
-3 -17 -1 -20 4 -4 6 -17 7 -30 4 -13 -3 -35 1 -52 10 -15 9 -21 15 -13 14 8
-2 15 2 15 7 0 5 -8 8 -17 7 -18 -3 -19 -1 -23 73 -1 31 20 75 37 75 5 0 16 7
24 15 8 8 21 12 28 9 8 -3 17 -1 21 5 8 14 22 14 30 2z m115 -60 c0 -52 -3
-62 -26 -80 -49 -39 -104 -16 -104 43 0 56 41 94 103 95 26 1 27 0 27 -58z"/>
<path d="M3950 2296 c0 -2 7 -7 16 -10 8 -3 12 -2 9 4 -6 10 -25 14 -25 6z"/>
<path d="M3998 2288 c5 -5 16 -8 23 -6 8 3 3 7 -10 11 -17 4 -21 3 -13 -5z"/>
<path d="M2565 2711 c-114 -53 -162 -186 -120 -328 38 -126 184 -174 338 -109
43 18 50 28 38 60 -10 24 -11 25 -42 9 -71 -35 -148 -13 -175 52 -18 44 -18
156 0 200 24 57 90 74 157 40 17 -9 32 -15 33 -13 1 2 9 20 19 41 l17 38 -35
14 c-51 22 -180 19 -230 -4z m78 -14 c32 20 147 5 147 -19 0 -6 -7 -7 -16 -4
-8 3 -12 2 -9 -4 3 -6 2 -10 -4 -10 -5 0 -13 5 -16 10 -4 6 -10 8 -15 5 -4 -3
-10 2 -14 10 -3 8 -10 15 -16 15 -6 0 -8 -4 -5 -10 5 -9 -23 -15 -47 -11 -5 0
-8 -5 -8 -11 0 -9 -4 -8 -10 2 -8 12 -10 13 -10 1 0 -17 -29 -51 -42 -51 -5 0
-6 5 -2 12 4 7 3 8 -5 4 -9 -6 -9 -11 -1 -21 8 -10 8 -19 1 -33 -11 -21 -8
-156 5 -186 5 -13 4 -17 -3 -13 -13 8 -11 -19 2 -30 4 -4 5 -2 1 5 -12 21 4
13 33 -17 16 -16 32 -27 35 -24 3 4 6 1 6 -5 0 -6 16 -14 35 -18 20 -3 33 -9
30 -12 -5 -6 -58 -13 -82 -12 -44 2 -53 5 -48 17 4 11 0 11 -18 2 -19 -11 -21
-10 -9 3 10 13 10 18 1 24 -8 5 -9 3 -4 -6 13 -21 -38 0 -55 24 -19 26 -52
118 -39 111 11 -8 11 -7 -1 33 -7 25 -5 46 7 80 18 54 49 102 66 102 7 0 6 -4
-3 -11 -13 -9 -13 -10 0 -6 8 2 14 12 12 22 -2 10 1 14 7 10 6 -3 11 -2 11 3
0 6 8 8 18 5 10 -2 25 3 32 12 9 11 16 13 18 6 2 -6 9 -8 15 -4z m134 -393
c-3 -3 -12 -4 -19 -1 -8 3 -5 6 6 6 11 1 17 -2 13 -5z m-32 -14 c3 -5 1 -10
-4 -10 -6 0 -11 5 -11 10 0 6 2 10 4 10 3 0 8 -4 11 -10z"/>
<path d="M2975 2711 c-86 -41 -135 -124 -135 -230 0 -196 158 -289 353 -207
43 18 50 28 38 60 -10 24 -11 25 -42 9 -17 -9 -48 -16 -69 -17 -84 -2 -120 49
-120 173 0 64 4 84 23 111 31 47 74 57 132 31 l45 -20 20 40 21 39 -28 12
c-16 6 -66 13 -113 15 -68 3 -93 0 -125 -16z m145 -16 c0 -5 4 -4 9 3 7 11 13
11 39 0 21 -8 29 -17 24 -25 -6 -10 -17 -9 -52 1 -36 10 -53 10 -85 0 -22 -7
-36 -13 -32 -13 4 -1 -3 -12 -15 -25 -13 -13 -27 -21 -32 -18 -5 3 -6 0 -2 -7
4 -6 2 -19 -6 -28 -7 -9 -8 -14 -3 -11 11 7 13 -161 2 -179 -4 -6 1 -10 11 -9
17 1 18 -3 9 -34 -2 -8 -2 -12 0 -7 7 11 31 8 39 -5 4 -7 3 -8 -4 -4 -7 4 -12
5 -12 2 0 -3 21 -15 46 -26 38 -18 51 -19 77 -11 23 8 34 8 41 0 8 -9 7 -10
-3 -4 -8 4 -17 2 -21 -6 -10 -15 -141 -20 -151 -6 -4 5 -18 10 -33 10 -16 1
-24 7 -22 14 3 7 -1 10 -8 7 -15 -6 -55 52 -61 89 -11 59 -12 137 -2 130 6 -4
7 -1 2 6 -4 7 3 32 15 57 21 41 31 49 53 45 5 -1 5 4 1 10 -5 8 -2 10 8 6 10
-3 15 0 14 11 -1 10 11 21 31 27 41 14 123 14 123 0z"/>
<path d="M3328 2723 c-56 -4 -57 -4 -48 -29 6 -14 10 -120 10 -235 l0 -209 75
0 75 0 0 155 c0 142 2 157 20 175 19 19 53 26 112 22 28 -2 29 -1 54 101 6 26
5 27 -37 27 -54 0 -95 -25 -126 -77 l-23 -38 0 46 c0 47 -13 70 -39 67 -9 -1
-42 -3 -73 -5z m266 -47 c-4 -11 -11 -23 -15 -24 -5 -2 -7 -7 -4 -11 2 -5 -9
-8 -25 -9 -17 0 -39 -4 -50 -7 -38 -12 -21 22 29 59 39 29 75 25 65 -8z m-214
13 c0 -8 5 -8 15 1 14 12 20 7 16 -14 -3 -15 21 -66 30 -66 5 0 3 -10 -5 -22
-10 -16 -16 -66 -19 -163 l-5 -140 -44 0 c-36 0 -43 3 -40 19 2 10 0 16 -5 13
-4 -3 -6 71 -3 163 3 92 1 166 -3 163 -6 -4 -4 34 2 55 3 8 61 0 61 -9z"/>
<path d="M2860 2716 c0 -2 8 -10 18 -17 15 -13 16 -12 3 4 -13 16 -21 21 -21
13z"/>
<path d="M2724 2596 c1 -8 5 -18 8 -22 4 -3 5 1 4 10 -1 8 -5 18 -8 22 -4 3
-5 -1 -4 -10z"/>
<path d="M3185 2581 c-3 -5 -2 -12 3 -15 5 -3 9 1 9 9 0 17 -3 19 -12 6z"/>
<path d="M3080 2386 c0 -2 8 -10 18 -17 15 -13 16 -12 3 4 -13 16 -21 21 -21
13z"/>
<path d="M1766 2277 c3 -10 9 -15 12 -12 3 3 0 11 -7 18 -10 9 -11 8 -5 -6z"/>
<path d="M2846 2282 c-3 -5 1 -9 9 -9 8 0 12 4 9 9 -3 4 -7 8 -9 8 -2 0 -6 -4
-9 -8z"/>
<path d="M1295 2140 c-55 -3 712 -7 1705 -8 1160 -1 1800 2 1790 8 -17 11
-3323 11 -3495 0z"/>
<path d="M1519 2036 c-2 -2 -3 -61 -1 -130 3 -117 5 -126 23 -126 17 0 19 7
19 58 0 60 11 82 42 82 18 0 23 -25 18 -107 -1 -29 1 -33 24 -33 26 0 26 1 26
73 0 43 -5 78 -12 85 -17 17 -58 15 -80 -5 -17 -15 -18 -14 -18 45 0 53 -3 62
-18 62 -10 0 -21 -2 -23 -4z"/>
<path d="M2160 1910 l0 -130 51 0 c43 0 55 5 80 29 31 31 39 83 19 122 -12 21
-74 27 -85 9 -15 -24 -25 -6 -25 45 0 48 -2 55 -20 55 -19 0 -20 -7 -20 -130z
m105 -1 c11 -17 8 -79 -5 -94 -7 -8 -23 -15 -36 -15 -22 0 -24 4 -24 48 0 26
5 53 12 60 15 15 45 16 53 1z"/>
<path d="M1353 2015 c-85 -37 -99 -173 -23 -218 45 -27 160 -20 160 9 0 10 -6
11 -26 4 -71 -27 -124 9 -124 85 0 87 47 132 111 108 29 -11 39 -8 39 14 0 18
-94 17 -137 -2z"/>
<path d="M3069 2007 c-73 -48 -87 -141 -29 -199 23 -23 37 -28 77 -28 61 0 93
9 93 25 0 9 -9 10 -39 2 -70 -19 -118 35 -107 118 9 70 62 99 129 70 13 -5 17
-2 17 14 0 19 -6 21 -54 21 -38 0 -62 -6 -87 -23z"/>
<path d="M2896 1994 c-9 -8 -19 -26 -22 -40 -3 -13 -12 -24 -20 -24 -8 0 -14
-4 -14 -10 0 -5 5 -10 10 -10 13 0 11 -51 -3 -115 -9 -35 -19 -53 -35 -61 -30
-15 -6 -25 25 -11 23 10 37 42 48 112 10 64 15 75 36 75 10 0 19 5 19 10 0 6
-9 10 -20 10 -23 0 -26 18 -6 45 7 11 20 16 29 12 9 -3 18 0 21 9 8 20 -48 19
-68 -2z"/>
<path d="M2496 1987 c3 -10 9 -15 12 -12 3 3 0 11 -7 18 -10 9 -11 8 -5 -6z"/>
<path d="M3381 1987 c-8 -10 -7 -14 2 -14 8 0 14 6 14 14 0 7 -1 13 -2 13 -2
0 -8 -6 -14 -13z"/>
<path d="M3573 1985 c0 -8 4 -12 9 -9 5 3 6 10 3 15 -9 13 -12 11 -12 -6z"/>
<path d="M3686 1988 c3 -5 10 -6 15 -3 13 9 11 12 -6 12 -8 0 -12 -4 -9 -9z"/>
<path d="M3936 1988 c3 -5 10 -6 15 -3 13 9 11 12 -6 12 -8 0 -12 -4 -9 -9z"/>
<path d="M4424 1992 c4 -3 14 -7 22 -8 9 -1 13 0 10 4 -4 3 -14 7 -22 8 -9 1
-13 0 -10 -4z"/>
<path d="M3877 1940 c-21 -17 -26 -18 -31 -5 -7 20 -60 19 -80 -1 -15 -14 -16
-14 -16 0 0 11 -9 16 -26 16 -20 0 -25 -4 -20 -16 3 -9 6 -47 6 -85 0 -62 2
-69 20 -69 18 0 20 7 20 58 0 60 11 82 42 82 16 0 18 -9 18 -70 0 -67 1 -70
23 -70 22 0 23 3 21 51 -4 59 8 89 36 89 18 0 20 -7 20 -70 0 -68 1 -70 25
-70 24 0 25 2 25 74 0 47 -5 77 -12 83 -27 21 -47 21 -71 3z"/>
<path d="M1717 1939 c-26 -15 -11 -30 18 -17 31 14 55 4 55 -22 0 -13 -7 -20
-20 -20 -55 0 -98 -52 -70 -85 15 -18 61 -20 79 -2 11 10 14 10 18 0 5 -15 49
-18 57 -4 3 5 -1 12 -9 15 -12 4 -15 19 -14 60 1 33 -3 62 -11 71 -14 17 -76
20 -103 4z m71 -96 c-4 -35 -48 -48 -48 -14 0 18 23 40 43 41 5 0 7 -12 5 -27z"/>
<path d="M1870 1865 c0 -84 0 -85 25 -85 23 0 24 3 27 68 3 61 5 67 26 70 21
3 22 0 22 -67 0 -69 1 -71 25 -71 23 0 24 3 27 68 3 64 4 67 28 67 24 0 25 -3
28 -67 3 -60 5 -68 23 -68 18 0 20 6 17 83 -3 82 -3 82 -31 85 -16 2 -39 -3
-52 -12 -20 -13 -24 -13 -29 -1 -7 18 -57 20 -75 3 -11 -10 -14 -10 -18 0 -3
6 -13 12 -24 12 -17 0 -19 -8 -19 -85z"/>
<path d="M2361 1924 c-29 -37 -28 -94 2 -122 25 -24 75 -29 108 -12 32 18 21
28 -24 23 -38 -5 -44 -3 -54 20 -12 26 -12 26 40 29 46 3 52 6 55 26 9 60 -87
87 -127 36z m87 -21 c3 -20 -1 -23 -33 -23 -20 0 -34 3 -32 8 2 4 7 15 10 25
10 27 51 18 55 -10z"/>
<path d="M2520 1865 c0 -84 0 -85 25 -85 23 0 24 4 27 63 3 59 4 62 31 65 19
2 27 9 27 23 0 23 -38 27 -46 4 -4 -8 -10 -15 -15 -15 -5 0 -9 7 -9 15 0 8 -9
15 -20 15 -18 0 -20 -7 -20 -85z"/>
<path d="M3245 1925 c-75 -74 32 -194 115 -127 32 26 38 90 10 125 -29 37 -90
38 -125 2z m91 -18 c3 -13 4 -41 2 -63 -2 -32 -7 -40 -27 -42 -29 -5 -41 12
-41 60 0 51 9 68 36 68 16 0 25 -7 30 -23z"/>
<path d="M3415 1865 c0 -81 1 -85 23 -85 20 0 22 5 22 58 0 60 11 82 42 82 16
0 18 -9 18 -70 0 -66 1 -70 23 -70 20 0 22 4 19 49 -4 57 10 91 38 91 18 0 20
-7 20 -70 0 -68 1 -70 25 -70 24 0 25 2 25 73 0 43 -5 78 -12 85 -17 17 -63
15 -79 -4 -11 -14 -13 -14 -21 0 -12 21 -62 21 -82 0 -15 -14 -16 -14 -16 0 0
10 -9 16 -22 16 -22 0 -23 -3 -23 -85z"/>
<path d="M4018 1936 c-40 -30 -45 -100 -11 -138 18 -20 73 -24 104 -8 29 16
23 30 -10 20 -21 -6 -35 -4 -50 7 -32 22 -27 43 12 43 75 0 94 21 61 68 -17
25 -77 30 -106 8z m72 -15 c0 -5 3 -16 6 -25 5 -13 -1 -16 -30 -16 -37 0 -47
15 -24 38 14 14 48 16 48 3z"/>
<path d="M4165 1865 c0 -81 1 -85 23 -85 20 0 22 4 22 60 0 46 4 61 18 68 9 5
22 7 28 5 6 -2 14 5 17 17 6 25 -18 27 -45 3 -17 -15 -18 -15 -18 0 0 11 -8
17 -22 17 -22 0 -23 -4 -23 -85z"/>
<path d="M4319 1937 c-67 -51 -40 -157 40 -157 20 0 46 7 57 15 18 14 17 15
-17 9 -47 -7 -69 14 -69 65 0 47 19 66 60 57 22 -4 30 -2 30 9 0 19 -77 20
-101 2z"/>
<path d="M4461 1924 c-44 -57 -15 -144 49 -144 33 0 80 19 80 32 0 10 -3 10
-35 -2 -32 -12 -60 0 -68 30 -4 17 0 20 33 20 53 0 70 8 70 35 0 56 -91 77
-129 29z m89 -24 c0 -16 -7 -20 -35 -20 -28 0 -33 3 -28 18 3 9 10 23 16 29
13 18 47 -2 47 -27z"/>
<path d="M2715 1905 c-17 -16 -25 -35 -25 -59 0 -42 22 -66 60 -66 35 0 80 50
80 89 0 59 -71 81 -115 36z m75 -33 c0 -46 -19 -76 -46 -70 -15 3 -19 11 -17
42 3 44 17 66 44 66 15 0 19 -7 19 -38z"/>
<path d="M1231 1874 c0 -11 3 -14 6 -6 3 7 2 16 -1 19 -3 4 -6 -2 -5 -13z"/>
<path d="M2991 1777 c-8 -10 -7 -14 2 -14 8 0 14 6 14 14 0 7 -1 13 -2 13 -2
0 -8 -6 -14 -13z"/>
</g>
</svg>
