<svg xmlns="http://www.w3.org/2000/svg" width="140" height="140" viewBox="0 0 140 140" role="img" aria-label="Weather icon placeholder">
  <title>Weather icon placeholder</title>
  <rect x="6" y="6" width="128" height="128" rx="18" fill="#F7F5EF" stroke="#0B3D2E" stroke-width="4"/>

  <!-- Sun -->
  <circle cx="52" cy="56" r="16" fill="#F2C400" stroke="#111111" stroke-width="2"/>
  <g stroke="#111111" stroke-width="3" stroke-linecap="round">
    <line x1="52" y1="26" x2="52" y2="36"/>
    <line x1="52" y1="76" x2="52" y2="86"/>
    <line x1="22" y1="56" x2="32" y2="56"/>
    <line x1="72" y1="56" x2="82" y2="56"/>
    <line x1="31" y1="35" x2="38" y2="42"/>
    <line x1="66" y1="70" x2="73" y2="77"/>
    <line x1="31" y1="77" x2="38" y2="70"/>
    <line x1="66" y1="42" x2="73" y2="35"/>
  </g>

  <!-- Cloud -->
  <path d="M88 90H48c-9 0-16-6-16-14 0-8 6-14 14-14 2-11 12-18 23-16 7 1 13 6 15 12h4c9 0 17 7 17 16 0 9-8 16-17 16z"
        fill="#DDE3DE" stroke="#0B3D2E" stroke-width="3" stroke-linejoin="round"/>

  <!-- Accent star (Ghana theme hint) -->
  <path d="M104 34l3.5 7.2 7.9 1.1-5.7 5.4 1.4 7.8-7.1-3.8-7.1 3.8 1.4-7.8-5.7-5.4 7.9-1.1z"
        fill="#B10F1C" opacity="0.9"/>
</svg>